<?xml version="1.0" encoding="UTF-8"?>
<svg width="271px" height="53px" viewBox="0 0 271 53" version="1.1" xmlns="http://www.w3.org/2000/svg" xmlns:xlink="http://www.w3.org/1999/xlink">
    <!-- Generator: Sketch 63.1 (92452) - https://sketch.com -->
    <title>Logo</title>
    <desc>Created with Sketch.</desc>
    <g id="Branded-LP---Final" stroke="none" stroke-width="1" fill="none" fill-rule="evenodd">
        <g id="MA-Dev-Test-A" transform="translate(-464.000000, -30.000000)">
            <g id="Logo" transform="translate(465.000000, 25.000000)">
                <g id="-Badges-&amp;-Logos-/-Company-Logo-White">
                    <g id="MA_Logo_Horizontal_Color_CMYK" transform="translate(0.000000, 5.625000)">
                        <path d="M77.4382353,20.3088235 L77.4382353,28.8041176 C77.4382353,29.0429412 77.2182353,29.2264706 76.9064706,29.2264706 L75.5482353,29.2264706 C75.2547059,29.2264706 75.0158824,29.0429412 75.0158824,28.8041176 L75.0158824,16.8041176 C75.0158824,16.5658824 75.2547059,16.3823529 75.5482353,16.3823529 L77.1811765,16.3823529 C77.3464706,16.3823529 77.5670588,16.4923529 77.6217647,16.5476471 L81.1447059,21.4464706 C81.8782353,20.4370588 82.5941176,19.4652941 83.31,18.4552941 C83.7688235,17.8135294 84.2276471,17.1894118 84.7223529,16.5476471 C84.7776471,16.4923529 84.9794118,16.3823529 85.1082353,16.3823529 L86.7782353,16.3823529 C87.0894118,16.3823529 87.2735294,16.5658824 87.2735294,16.8041176 L87.2735294,28.8041176 C87.2735294,29.0429412 87.0894118,29.2264706 86.7782353,29.2264706 L85.3829412,29.2264706 C85.1082353,29.2264706 84.8882353,29.0429412 84.8882353,28.8041176 L84.8882353,20.3088235 L81.7317647,24.6023529 C81.6770588,24.6576471 81.4747059,24.7676471 81.31,24.7676471 L80.9982353,24.7676471 C80.8329412,24.7676471 80.6494118,24.6576471 80.5941176,24.6023529 L77.4382353,20.3088235" id="Fill-1" fill="#FFFFFF"></path>
                        <path d="M94.7929412,23.9417647 L98.2976471,23.9417647 L96.6458824,19.1529412 L94.7929412,23.9417647 Z M99.0682353,26.0888235 L93.9670588,26.0888235 L92.94,28.8229412 C92.8111765,29.0247059 92.5911765,29.2264706 92.3705882,29.2264706 L91.0317647,29.2264706 C90.6094118,29.2264706 90.3894118,28.9511765 90.5176471,28.6394118 L95.1970588,16.7858824 C95.3247059,16.5841176 95.5635294,16.3823529 95.7652941,16.3823529 L97.5635294,16.3823529 C97.7288235,16.3823529 98.0223529,16.5288235 98.0776471,16.6570588 L102.481176,28.6576471 C102.609412,28.9694118 102.334706,29.2264706 101.967059,29.2264706 L100.590588,29.2264706 C100.425882,29.2264706 100.132353,29.0794118 100.077059,28.9511765 L99.0682353,26.0888235 L99.0682353,26.0888235 Z" id="Fill-2" fill="#FFFFFF"></path>
                        <path d="M105.157059,18.4552941 C104.863529,18.4552941 104.624706,18.2723529 104.624706,18.0335294 L104.624706,16.8041176 C104.624706,16.5658824 104.863529,16.3823529 105.157059,16.3823529 L114.312941,16.3823529 C114.624706,16.3823529 114.808235,16.5658824 114.808235,16.8041176 L114.808235,18.0335294 C114.808235,18.2723529 114.624706,18.4552941 114.312941,18.4552941 L110.9,18.4552941 L110.9,28.8041176 C110.9,29.0429412 110.68,29.2264706 110.404706,29.2264706 L109.047059,29.2264706 C108.753529,29.2264706 108.514706,29.0429412 108.514706,28.8041176 L108.514706,18.4552941 L105.157059,18.4552941" id="Fill-3" fill="#FFFFFF"></path>
                        <path d="M117.465882,18.4552941 C117.172941,18.4552941 116.934118,18.2723529 116.934118,18.0335294 L116.934118,16.8041176 C116.934118,16.5658824 117.172941,16.3823529 117.465882,16.3823529 L126.622353,16.3823529 C126.934118,16.3823529 127.118235,16.5658824 127.118235,16.8041176 L127.118235,18.0335294 C127.118235,18.2723529 126.934118,18.4552941 126.622353,18.4552941 L123.21,18.4552941 L123.21,28.8041176 C123.21,29.0429412 122.989412,29.2264706 122.714118,29.2264706 L121.356471,29.2264706 C121.062353,29.2264706 120.824118,29.0429412 120.824118,28.8041176 L120.824118,18.4552941 L117.465882,18.4552941" id="Fill-4" fill="#FFFFFF"></path>
                        <path d="M134.07,22.5841176 C135.959412,22.5841176 136.693529,21.7217647 136.693529,20.5294118 C136.693529,19.8317647 136.418824,18.5288235 134.033529,18.5288235 L132.785294,18.5288235 L132.785294,22.5841176 L134.07,22.5841176 Z M132.785294,28.8041176 C132.785294,29.0429412 132.547059,29.2264706 132.253529,29.2264706 L130.877647,29.2264706 C130.564706,29.2264706 130.344706,29.0429412 130.344706,28.8041176 L130.344706,16.8041176 C130.344706,16.5658824 130.564706,16.3823529 130.877647,16.3823529 L134.051176,16.3823529 C136.914118,16.3823529 139.042353,17.5929412 139.042353,20.5105882 C139.042353,22.3641176 138.215882,23.6482353 136.62,24.2535294 L139.133529,28.6029412 C139.299412,28.9147059 139.115882,29.2264706 138.694118,29.2264706 L137.061176,29.2264706 C136.858235,29.2264706 136.693529,29.1164706 136.565882,28.9147059 L134.197647,24.6941176 L132.785294,24.6941176 L132.785294,28.8041176 L132.785294,28.8041176 Z" id="Fill-5" fill="#FFFFFF"></path>
                        <path d="M151.241765,27.0617647 C151.554118,27.0617647 151.773529,27.2076471 151.773529,27.4829412 L151.773529,28.8041176 C151.773529,29.0429412 151.554118,29.2264706 151.241765,29.2264706 L143.406471,29.2264706 C143.094706,29.2264706 142.874118,29.0429412 142.874118,28.8041176 L142.874118,16.8041176 C142.874118,16.5658824 143.094706,16.3823529 143.406471,16.3823529 L151.094706,16.3823529 C151.388235,16.3823529 151.627647,16.5658824 151.627647,16.8041176 L151.627647,18.1623529 C151.627647,18.4370588 151.388235,18.5835294 151.094706,18.5835294 L145.296471,18.5835294 L145.296471,21.1347059 L150.745882,21.1347059 C151.04,21.1347059 151.278235,21.3176471 151.278235,21.5564706 L151.278235,22.8041176 C151.278235,23.0794118 151.04,23.2447059 150.745882,23.2447059 L145.296471,23.2447059 L145.296471,27.0617647 L151.241765,27.0617647" id="Fill-6" fill="#FFFFFF"></path>
                        <path d="M158.67,29.41 C157.423529,29.41 156.302941,29.1347059 155.514706,28.5476471 C155.349412,28.4188235 155.275882,28.2723529 155.349412,27.9964706 L155.661176,26.8776471 C155.752353,26.6388235 156.082941,26.4741176 156.376471,26.6023529 C157.018824,26.9511765 157.808235,27.2629412 158.817059,27.2629412 C160.010588,27.2629412 160.928235,26.6576471 160.928235,25.63 C160.909412,24.7311765 160.047647,24.1252941 158.725882,23.5570588 C156.854118,22.8229412 155.367647,21.6117647 155.312941,19.85 C155.257059,17.74 156.982353,16.1982353 159.606471,16.1982353 C161.019412,16.1982353 162.047647,16.6570588 162.413529,16.8958824 C162.634118,17.0429412 162.762353,17.1711765 162.69,17.4464706 L162.175882,18.6570588 C161.991765,18.9876471 161.753529,19.0611765 161.46,18.8958824 C160.707647,18.4552941 160.065294,18.2905882 159.495882,18.3458824 C158.578824,18.4 157.698235,18.9511765 157.752353,19.7764706 C157.771765,20.4370588 158.248235,20.9876471 159.422353,21.4829412 C161.184706,22.2170588 163.295294,23.2629412 163.35,25.6117647 C163.404706,27.8135294 161.827059,29.41 158.67,29.41" id="Fill-7" fill="#FFFFFF"></path>
                        <path d="M170.007059,29.41 C168.76,29.41 167.640588,29.1347059 166.851176,28.5476471 C166.686471,28.4188235 166.613529,28.2723529 166.686471,27.9964706 L166.998235,26.8776471 C167.089412,26.6388235 167.420588,26.4741176 167.714118,26.6023529 C168.356471,26.9511765 169.145294,27.2629412 170.154118,27.2629412 C171.347647,27.2629412 172.264118,26.6576471 172.264118,25.63 C172.246471,24.7311765 171.384118,24.1252941 170.062941,23.5570588 C168.191176,22.8229412 166.704706,21.6117647 166.65,19.85 C166.594706,17.74 168.319412,16.1982353 170.942941,16.1982353 C172.355294,16.1982353 173.384706,16.6570588 173.750588,16.8958824 C173.971176,17.0429412 174.098824,17.1711765 174.026471,17.4464706 L173.512353,18.6570588 C173.328824,18.9876471 173.090588,19.0611765 172.796471,18.8958824 C172.044118,18.4552941 171.401765,18.2905882 170.833529,18.3458824 C169.915882,18.4 169.035294,18.9511765 169.09,19.7764706 C169.108824,20.4370588 169.585294,20.9876471 170.76,21.4829412 C172.521765,22.2170588 174.632353,23.2629412 174.686471,25.6117647 C174.741176,27.8135294 173.164118,29.41 170.007059,29.41" id="Fill-8" fill="#FFFFFF"></path>
                        <path d="M188.646471,23.7947059 L193.104118,23.7947059 L190.958235,17.6852941 L188.646471,23.7947059 Z M186.590588,29.2264706 L184.957059,29.2264706 L190.002941,16.3823529 L191.93,16.3823529 L196.645882,29.2264706 L195.030588,29.2264706 L193.6,25.2082353 L188.114118,25.2082353 L186.590588,29.2264706 L186.590588,29.2264706 Z" id="Fill-9" fill="#FFFFFF"></path>
                        <path d="M201.799412,27.7764706 L204.092941,27.7764706 C206.991765,27.7223529 208.202941,25.3917647 208.202941,22.7858824 C208.202941,20.7670588 207.395294,17.8317647 204.092941,17.8317647 L201.799412,17.8317647 L201.799412,27.7764706 Z M204.129412,29.2264706 L200.331176,29.2264706 L200.331176,16.3823529 L204.092941,16.3823529 C207.597647,16.3823529 209.688824,18.9694118 209.688824,22.7858824 C209.688824,26.1252941 208.202941,29.1164706 204.129412,29.2264706 L204.129412,29.2264706 Z" id="Fill-10" fill="#FFFFFF"></path>
                        <polyline id="Fill-11" fill="#FFFFFF" points="218.164118 27.7405882 222.511765 16.3823529 224.072353 16.3823529 219.154706 29.2264706 217.208824 29.2264706 212.457059 16.3823529 214.09 16.3823529 218.164118 27.7405882"></polyline>
                        <polygon id="Fill-12" fill="#FFFFFF" points="227.665294 29.2270588 229.151176 29.2270588 229.151176 16.3641176 227.665294 16.3641176"></polygon>
                        <path d="M236.801176,29.4282353 C235.554118,29.4282353 234.471176,29.1717647 233.737647,28.6211765 L234.104118,27.2817647 C234.819412,27.6488235 235.7,28.0152941 236.947647,28.0152941 C238.526471,28.0152941 239.791765,27.1894118 239.774118,25.8135294 C239.755294,24.5658824 238.783529,23.9052941 237.04,23.1711765 C235.057647,22.4923529 233.792353,21.4647059 233.755294,19.6664706 C233.701176,17.6664706 235.334118,16.1805882 237.773529,16.1805882 C239.278824,16.1805882 240.305882,16.7676471 240.581176,16.9141176 L240.031176,18.1988235 C239.26,17.6482353 238.398235,17.5564706 237.645882,17.5929412 C236.378824,17.6482353 235.187059,18.4 235.223529,19.5747059 C235.241765,20.4558824 235.920588,21.2082353 237.352353,21.7952941 C239.131765,22.5470588 241.168824,23.5382353 241.223529,25.7952941 C241.26,27.9052941 239.774118,29.4282353 236.801176,29.4282353" id="Fill-13" fill="#FFFFFF"></path>
                        <path d="M256.120588,22.8041176 C256.120588,20.0335294 253.9,17.6482353 251.13,17.6482353 C248.192941,17.6482353 245.973529,20.0335294 245.973529,22.8041176 C245.973529,25.5747059 248.192941,27.9605882 251.13,27.9605882 C253.9,27.9605882 256.120588,25.5747059 256.120588,22.8041176 Z M257.588235,22.8041176 C257.588235,26.3641176 254.689412,29.4282353 251.13,29.4282353 C247.368235,29.4282353 244.505882,26.3641176 244.505882,22.8041176 C244.505882,19.2447059 247.368235,16.1805882 251.13,16.1805882 C254.689412,16.1805882 257.588235,19.2447059 257.588235,22.8041176 L257.588235,22.8041176 Z" id="Fill-14" fill="#FFFFFF"></path>
                        <path d="M264.851176,23.0247059 C267.291765,23.0247059 268.209412,21.8864706 268.209412,20.3635294 C268.209412,19.4835294 267.897059,17.7770588 264.814118,17.7770588 L262.905882,17.7770588 L262.905882,23.0247059 L264.851176,23.0247059 Z M262.905882,24.3823529 L262.905882,29.2264706 L261.42,29.2264706 L261.42,16.3823529 L264.832353,16.3823529 C267.567059,16.3823529 269.603529,17.5564706 269.603529,20.3452941 C269.603529,22.3270588 268.576471,23.6117647 266.832941,24.1252941 L269.750588,29.2264706 L268.044118,29.2264706 L265.328235,24.3823529 L262.905882,24.3823529 L262.905882,24.3823529 Z" id="Fill-15" fill="#FFFFFF"></path>
                        <path d="M1.66882353,37.7617647 L0.373529412,37.0141176 C0.267647059,36.9529412 0.201764706,36.84 0.201764706,36.7170588 L0.201764706,20.0429412 C0.201764706,19.4794118 0.811764706,19.1276471 1.29941176,19.4094118 L23.8735294,32.4576471 C24.8958824,33.0482353 26.1558824,33.0488235 27.1788235,32.4582353 L60.1752941,13.4 C60.6629412,13.1182353 61.2723529,13.4705882 61.2723529,14.0335294 C61.2723529,18.7352941 61.2723529,32.8405882 61.2723529,32.8405882 C61.2723529,32.9664706 61.2029412,33.0823529 61.0923529,33.1423529 L59.8382353,33.82 C59.6429412,33.9252941 59.4058824,33.7835294 59.4058824,33.5617647 L59.4188235,16.2729412 C59.4188235,16.1441176 59.2788235,16.0629412 59.1676471,16.1276471 L27.18,34.5970588 C26.1564706,35.1882353 24.8952941,35.1876471 23.8729412,34.5952941 L2.30941176,22.1105882 C2.19823529,22.0458824 2.05823529,22.1264706 2.05823529,22.2558824 L2.05,37.5423529 C2.05,37.7376471 1.83823529,37.8594118 1.66882353,37.7617647" id="Fill-16" fill="#FFFFFF"></path>
                        <path d="M1.66882353,37.7617647 L0.373529412,37.0141176 C0.267647059,36.9529412 0.201764706,36.84 0.201764706,36.7170588 L0.201764706,20.0429412 C0.201764706,19.4794118 0.811764706,19.1276471 1.29941176,19.4094118 L23.8735294,32.4576471 C24.8958824,33.0482353 26.1558824,33.0488235 27.1788235,32.4582353 L60.1752941,13.4 C60.6629412,13.1182353 61.2723529,13.4705882 61.2723529,14.0335294 C61.2723529,18.7352941 61.2723529,32.8405882 61.2723529,32.8405882 C61.2723529,32.9664706 61.2029412,33.0823529 61.0923529,33.1423529 L59.8382353,33.82 C59.6429412,33.9252941 59.4058824,33.7835294 59.4058824,33.5617647 L59.4188235,16.2729412 C59.4188235,16.1441176 59.2788235,16.0629412 59.1676471,16.1276471 L27.18,34.5970588 C26.1564706,35.1882353 24.8952941,35.1876471 23.8729412,34.5952941 L2.30941176,22.1105882 C2.19823529,22.0458824 2.05823529,22.1264706 2.05823529,22.2558824 L2.05,37.5423529 C2.05,37.7376471 1.83823529,37.8594118 1.66882353,37.7617647 Z" id="Stroke-17" stroke="#FFFFFF" stroke-width="0.875018887"></path>
                        <path d="M5.16058824,30.1347059 L5.16058824,31.7535294 C5.16058824,31.8352941 5.20411765,31.91 5.27411765,31.9505882 L20.4582353,40.7264706 C21.1388235,41.12 21.5570588,41.8452941 21.5570588,42.6305882 L21.5570588,49.1241176 C21.5570588,49.3894118 21.6982353,49.6335294 21.9270588,49.7652941 L24.9052941,51.49 C25.1270588,51.6188235 25.4,51.6229412 25.6258824,51.5017647 L28.81,49.8 C29.0505882,49.6711765 29.2011765,49.42 29.2011765,49.1470588 L29.2011765,42.8370588 C29.2011765,42.0505882 29.6211765,41.3241176 30.3023529,40.9311765 L56.0458824,26.1058824 C56.1164706,26.0652941 56.16,25.99 56.16,25.9088235 L56.16,24.2135294 C56.16,24.0388235 55.9705882,23.9288235 55.8188235,24.0164706 L28.4682353,39.7911765 C27.7876471,40.1835294 27.3682353,40.9105882 27.3682353,41.6958824 L27.3682353,48.0917647 C27.3682353,48.3658824 27.2164706,48.6176471 26.9735294,48.7464706 L25.6782353,49.4305882 C25.4447059,49.5541176 25.1635294,49.5435294 24.94,49.4035294 L23.7776471,48.6776471 C23.5605882,48.5417647 23.4294118,48.3047059 23.4294118,48.0488235 L23.4294118,41.6141176 C23.4294118,40.8305882 23.0123529,40.1052941 22.3341176,39.7117647 L5.50235294,29.9382353 C5.35058824,29.8505882 5.16058824,29.9594118 5.16058824,30.1347059" id="Fill-19" fill="#FFFFFF"></path>
                        <path d="M5.16058824,30.1347059 L5.16058824,31.7535294 C5.16058824,31.8352941 5.20411765,31.91 5.27411765,31.9505882 L20.4582353,40.7264706 C21.1388235,41.12 21.5570588,41.8452941 21.5570588,42.6305882 L21.5570588,49.1241176 C21.5570588,49.3894118 21.6982353,49.6335294 21.9270588,49.7652941 L24.9052941,51.49 C25.1270588,51.6188235 25.4,51.6229412 25.6258824,51.5017647 L28.81,49.8 C29.0505882,49.6711765 29.2011765,49.42 29.2011765,49.1470588 L29.2011765,42.8370588 C29.2011765,42.0505882 29.6211765,41.3241176 30.3023529,40.9311765 L56.0458824,26.1058824 C56.1164706,26.0652941 56.16,25.99 56.16,25.9088235 L56.16,24.2135294 C56.16,24.0388235 55.9705882,23.9288235 55.8188235,24.0164706 L28.4682353,39.7911765 C27.7876471,40.1835294 27.3682353,40.9105882 27.3682353,41.6958824 L27.3682353,48.0917647 C27.3682353,48.3658824 27.2164706,48.6176471 26.9735294,48.7464706 L25.6782353,49.4305882 C25.4447059,49.5541176 25.1635294,49.5435294 24.94,49.4035294 L23.7776471,48.6776471 C23.5605882,48.5417647 23.4294118,48.3047059 23.4294118,48.0488235 L23.4294118,41.6141176 C23.4294118,40.8305882 23.0123529,40.1052941 22.3341176,39.7117647 L5.50235294,29.9382353 C5.35058824,29.8505882 5.16058824,29.9594118 5.16058824,30.1347059 Z" id="Stroke-20" stroke="#FFFFFF" stroke-width="0.875018887" fill="#FFFFFF"></path>
                        <path d="M24.4882353,7.52647059 L32.8223529,2.78529412 C34.93,1.57764706 35.7364706,1.62764706 37.8717647,2.78529412 L47.0111765,7.70764706 L24.4882353,7.52647059 Z M32.0570588,1.20411765 L4.17529412,17.2888235 C4.03176471,17.3858824 4.10235294,17.4658824 4.15705882,17.4952941 L5.41117647,18.2305882 C5.56176471,18.3129412 5.74470588,18.3111765 5.89352941,18.2258824 L19.8152941,10.2029412 C21.1576471,9.42 21.6847059,9.28 23.3011765,9.29 L48.6064706,9.49117647 C49.9035294,9.48470588 50.5276471,9.65705882 51.84,10.3247059 L55.5841176,12.1952941 C55.7376471,12.2782353 55.9235294,12.2747059 56.0735294,12.1847059 L57.3535294,11.4517647 C57.4113203,11.4094118 57.4488235,11.3882353 57.3511765,11.3147059 L38.79,1.15294118 C36.1858824,-0.292941176 34.6394118,-0.279411765 32.0570588,1.20411765 L32.0570588,1.20411765 Z" id="Fill-22" fill="#FFFFFF"></path>
                        <path d="M24.4882353,7.52647059 L32.8223529,2.78529412 C34.93,1.57764706 35.7364706,1.62764706 37.8717647,2.78529412 L47.0111765,7.70764706 L24.4882353,7.52647059 Z M32.0570588,1.20411765 L4.17529412,17.2888235 C4.03176471,17.3858824 4.10235294,17.4658824 4.15705882,17.4952941 L5.41117647,18.2305882 C5.56176471,18.3129412 5.74470588,18.3111765 5.89352941,18.2258824 L19.8152941,10.2029412 C21.1576471,9.42 21.6847059,9.28 23.3011765,9.29 L48.6064706,9.49117647 C49.9035294,9.48470588 50.5276471,9.65705882 51.84,10.3247059 L55.5841176,12.1952941 C55.7376471,12.2782353 55.9235294,12.2747059 56.0735294,12.1847059 L57.3535294,11.4517647 C57.4113203,11.4094118 57.4488235,11.3882353 57.3511765,11.3147059 L38.79,1.15294118 C36.1858824,-0.292941176 34.6394118,-0.279411765 32.0570588,1.20411765 Z" id="Stroke-23" stroke="#FFFFFF" stroke-width="0.875018887" fill="#FFFFFF"></path>
                    </g>
                </g>
            </g>
        </g>
    </g>
</svg>