<?xml version="1.0" encoding="UTF-8"?>
<svg width="157px" height="27px" viewBox="0 0 157 27" version="1.1" xmlns="http://www.w3.org/2000/svg" xmlns:xlink="http://www.w3.org/1999/xlink">
    <!-- Generator: Sketch 63.1 (92452) - https://sketch.com -->
    <title>nectar-sleep-logo-vector</title>
    <desc>Created with Sketch.</desc>
    <g id="Branded-LP---Final" stroke="none" stroke-width="1" fill="none" fill-rule="evenodd">
        <g id="MA-Dev-Test-A" transform="translate(-695.000000, -132.000000)" fill="#FFFFFF" fill-rule="nonzero">
            <g id="Group-5" transform="translate(349.000000, 121.000000)">
                <g id="nectar-sleep-logo-vector" transform="translate(346.000000, 11.000000)">
                    <path d="M144.224495,0 L144.224495,0 L131.452996,0 L131.452996,0.0264420281 L131.452996,12.7714996 L131.452996,25.5429992 L144.224495,25.5429992 L156.969553,25.5429992 L156.995995,25.5429992 L156.995995,12.7714996 C156.995995,5.71147807 151.284517,0 144.224495,0" id="Path"></path>
                    <path d="M4.47072765,25.5429992 L0.026298398,25.5429992 L0.026298398,10.40834 C0.026298398,8.73830861 0.026298398,7.77282173 0,6.18107309 L4.10255008,6.18107309 L4.10255008,8.19032957 L4.12884848,8.19032957 C4.91780042,6.91171181 6.89018027,5.60699981 9.67781045,5.60699981 C14.4378205,5.60699981 18.0669994,8.71221437 18.0669994,14.9226435 L18.0669994,25.5169049 L13.5962717,25.5169049 L13.5962717,14.8443608 C13.5962717,11.6608635 12.1235615,9.54723005 9.0203505,9.54723005 C5.94343794,9.54723005 4.47072765,11.6869577 4.47072765,14.8443608 L4.47072765,25.5429992 Z" id="Path"></path>
                    <path d="M40.4949987,19.8099726 C39.3205595,23.4457244 36.0843272,26.1659991 31.0211895,26.1659991 C25.3316843,26.1659991 21.1819993,22.0855871 21.1819993,15.80803 C21.1819993,9.60894243 25.4882762,5.60699981 30.9428936,5.60699981 C36.3714123,5.60699981 40.3123081,9.55662945 40.3123081,15.7818735 L40.3123081,17.0112284 L25.6709667,17.0112284 C26.0102491,20.4377283 28.098141,22.4779344 31.2560773,22.4779344 C33.7615475,22.4779344 35.1708745,21.3532054 35.7450448,19.8099726 L40.4949987,19.8099726 L40.4949987,19.8099726 Z M25.6709667,13.6370415 L35.6928475,13.6370415 C35.431861,11.1521752 33.8398435,9.05965619 30.8124003,9.05965619 C27.9415491,9.05965619 26.0624464,11.2044882 25.6709667,13.6370415" id="Shape"></path>
                    <path d="M54.1212542,26.1659991 C48.8166171,26.1659991 44.2329985,22.6087168 44.2329985,15.8864995 C44.2329985,9.21659511 48.971121,5.60699981 54.2757582,5.60699981 C59.1168834,5.60699981 62.5932233,8.58883941 63.3914939,12.4861561 L58.7821247,12.4861561 C58.2413607,10.8906103 56.7478221,9.60894243 54.2757582,9.60894243 C50.9539223,9.60894243 48.6106117,12.0938088 48.6106117,15.8864995 C48.6106117,19.6791902 50.9539223,22.2163695 54.2242569,22.2163695 C56.8250741,22.2163695 58.4216154,20.8300756 58.910878,19.2345299 L63.5459979,19.2345299 C62.7477273,23.1056901 58.9366287,26.1659991 54.1212542,26.1659991" id="Path"></path>
                    <path d="M76.5704448,25.5429992 C72.1134187,25.5429992 69.2279451,23.2017768 69.2279451,17.8616853 L69.2279451,9.7857834 L65.4149978,9.7857834 L65.4149978,5.89251474 L69.2279451,5.89251474 L69.2279451,0 L71.2117082,0 C72.5256292,0 73.5819186,1.07854064 73.5819186,2.42013998 L73.5819186,5.89251474 L78.889129,5.89251474 L78.889129,9.7857834 L73.5819186,9.7857834 L73.5819186,17.6249325 C73.5819186,20.7553309 75.4111028,21.5182011 77.3948659,21.5182011 C78.1677606,21.5182011 78.6830237,21.4392835 79.1209974,21.3603659 L79.1209974,25.2536346 C78.5284448,25.4377757 77.5236816,25.5429992 76.5704448,25.5429992" id="Path"></path>
                    <path d="M82.2359973,15.912656 C82.2359973,9.81819433 86.1155517,5.60699981 92.1328198,5.60699981 C94.4816657,5.60699981 97.6486489,6.96713717 98.4667862,8.87656077 L98.4931777,8.87656077 L98.4931777,6.20859903 L102.794997,6.20859903 C102.768605,7.80414478 102.768605,8.77193482 102.768605,10.44595 L102.768605,25.6167129 L98.4667862,25.6167129 L98.4667862,22.8964382 L98.4403947,22.8964382 C97.6222574,24.8058618 94.5344487,26.1659991 92.1328198,26.1659991 C86.1155517,26.1398426 82.2359973,22.0071176 82.2359973,15.912656 M98.4403947,15.912656 C98.4403947,11.9630263 95.8540251,9.66125541 92.6078673,9.66125541 C89.2825349,9.66125541 86.7753399,11.9630263 86.7753399,15.912656 C86.7753399,19.8622856 89.2825349,22.0855871 92.6078673,22.0855871 C95.7220674,22.0855871 98.4403947,19.8622856 98.4403947,15.912656" id="Shape"></path>
                    <path d="M118.757384,10.0691148 C115.088766,10.0691148 112.85117,12.156654 112.85117,16.0968843 L112.85117,25.5429992 L108.454034,25.5429992 L108.454034,10.40834 C108.454034,8.73830861 108.454034,7.77282173 108.401996,6.18107309 L112.643022,6.18107309 L112.643022,9.36457037 L112.721077,9.36457037 C113.449597,7.19874845 115.609138,5.60699981 118.367105,5.60699981 C119.147662,5.60699981 119.615996,5.68528253 119.615996,5.68528253 L119.615996,10.0691148 L118.757384,10.0691148 L118.757384,10.0691148 Z" id="Path"></path>
                </g>
            </g>
        </g>
    </g>
</svg>