<?xml version="1.0" encoding="UTF-8"?>
<svg width="67px" height="53px" viewBox="0 0 67 53" version="1.1" xmlns="http://www.w3.org/2000/svg" xmlns:xlink="http://www.w3.org/1999/xlink">
    <g id="Branded-LP---Final" stroke="none" stroke-width="1" fill="none" fill-rule="evenodd" opacity="0.4">
        <g id="MA-Dev-Test-A" transform="translate(-42.000000, -1816.000000)" fill="#A6DDE0" fill-rule="nonzero">
            <g id="Testimonials" transform="translate(42.000000, 1691.000000)">
                <g id="Testimonial-1" transform="translate(0.000000, 125.000000)">
                    <path d="M54.2759644,53 C61.4332344,53 67,47.8195489 67,41.0451128 C67,35.2669173 62.2284866,30.4849624 56.462908,30.4849624 C52.2878338,30.4849624 50.1008902,33.4736842 48.3115727,33.4736842 C46.5222552,33.4736842 45.3293769,31.6804511 45.3293769,29.4887218 C45.3293769,20.3233083 51.2937685,9.16541353 67,3.78571429 L67,-1.13686838e-13 C47.5163205,6.97368421 38.1721068,17.5338346 38.1721068,32.8759398 C38.1721068,44.4323308 44.9317507,53 54.2759644,53 Z M16.1038576,53 C23.2611276,53 28.8278932,47.8195489 28.8278932,41.0451128 C28.8278932,35.2669173 24.0563798,30.4849624 18.2908012,30.4849624 C14.115727,30.4849624 11.9287834,33.4736842 10.1394659,33.4736842 C8.35014837,33.4736842 7.15727003,31.6804511 7.15727003,29.4887218 C7.15727003,20.3233083 13.1216617,9.16541353 28.8278932,3.78571429 L28.8278932,0 C9.34421365,6.97368421 0,17.5338346 0,32.8759398 C0,44.4323308 6.75964392,53 16.1038576,53 Z" id="“"></path>
                </g>
            </g>
        </g>
    </g>
</svg>